<svg width="1000" height="1000" viewBox="0 0 1000 1000" fill="none" xmlns="http://www.w3.org/2000/svg">
<ellipse cx="9.24763" cy="9.16407" rx="9.24763" ry="9.16407" transform="matrix(0.869912 -0.493207 0.506824 0.86205 486.896 496.603)" fill="#D9D9D9"/>
<ellipse cx="9.16407" cy="9.24763" rx="9.16407" ry="9.24763" transform="matrix(0.506824 -0.86205 0.869912 0.493207 487.024 503.52)" fill="#D9D9D9"/>
<circle cx="451.961" cy="228.961" r="25" transform="rotate(-10 451.961 228.961)" fill="#D9D9D9"/>
<circle cx="499.715" cy="499.783" r="25" transform="rotate(-10 499.715 499.783)" fill="#D9D9D9"/>
<circle cx="362.151" cy="262.151" r="25" transform="rotate(-30 362.151 262.151)" fill="#D9D9D9"/>
<circle cx="499.651" cy="500.308" r="25" transform="rotate(-30 499.651 500.308)" fill="#D9D9D9"/>
<circle cx="289.221" cy="323.221" r="25" transform="rotate(-50 289.221 323.221)" fill="#D9D9D9"/>
<circle cx="499.883" cy="499.987" r="25" transform="rotate(-50 499.883 499.987)" fill="#D9D9D9"/>
<circle cx="241.043" cy="406.043" r="25" transform="rotate(-70 241.043 406.043)" fill="#D9D9D9"/>
<circle cx="499.458" cy="500.098" r="25" transform="rotate(-70 499.458 500.098)" fill="#D9D9D9"/>
<circle cx="224.551" cy="499.701" r="25" transform="rotate(-90 224.551 499.701)" fill="#D9D9D9"/>
<circle cx="499.551" cy="499.701" r="25" transform="rotate(-90 499.551 499.701)" fill="#D9D9D9"/>
<circle cx="241.178" cy="593.999" r="25" transform="rotate(-110 241.178 593.999)" fill="#D9D9D9"/>
<circle cx="499.593" cy="499.944" r="25" transform="rotate(-110 499.593 499.944)" fill="#D9D9D9"/>
<circle cx="289.458" cy="676.682" r="25" transform="rotate(-130 289.458 676.682)" fill="#D9D9D9"/>
<circle cx="500.121" cy="499.916" r="25" transform="rotate(-130 500.121 499.916)" fill="#D9D9D9"/>
<circle cx="362.265" cy="737.899" r="25" transform="rotate(-150 362.265 737.899)" fill="#D9D9D9"/>
<circle cx="499.765" cy="499.742" r="25" transform="rotate(-150 499.765 499.742)" fill="#D9D9D9"/>
<circle cx="452.195" cy="770.964" r="25" transform="rotate(-170 452.195 770.964)" fill="#D9D9D9"/>
<circle cx="499.948" cy="500.142" r="25" transform="rotate(-170 499.948 500.142)" fill="#D9D9D9"/>
<ellipse cx="24.9999" cy="25" rx="24.9999" ry="25" transform="matrix(-0.984808 -0.173649 -0.173647 0.984808 576.961 208.682)" fill="#D9D9D9"/>
<ellipse cx="24.9999" cy="25" rx="24.9999" ry="25" transform="matrix(-0.984808 -0.173649 -0.173647 0.984808 529.208 479.504)" fill="#D9D9D9"/>
<ellipse cx="24.9999" cy="25" rx="24.9999" ry="25" transform="matrix(-0.866024 -0.500002 -0.499998 0.866026 671.961 253)" fill="#D9D9D9"/>
<ellipse cx="24.9999" cy="25" rx="24.9999" ry="25" transform="matrix(-0.866024 -0.500002 -0.499998 0.866026 534.461 491.157)" fill="#D9D9D9"/>
<ellipse cx="24.9999" cy="24.9999" rx="24.9999" ry="24.9999" transform="matrix(-0.642786 -0.766046 -0.766043 0.642789 745.96 326.302)" fill="#D9D9D9"/>
<ellipse cx="25" cy="24.9999" rx="25" ry="24.9999" transform="matrix(-0.642786 -0.766046 -0.766043 0.642789 535.299 503.069)" fill="#D9D9D9"/>
<ellipse cx="25" cy="24.9999" rx="25" ry="24.9999" transform="matrix(-0.342019 -0.939693 -0.939692 0.342022 790.96 420.985)" fill="#D9D9D9"/>
<ellipse cx="25" cy="24.9999" rx="25" ry="24.9999" transform="matrix(-0.342019 -0.939693 -0.939692 0.342022 532.546 515.04)" fill="#D9D9D9"/>
<ellipse cx="25" cy="24.9999" rx="25" ry="24.9999" transform="matrix(3.40203e-09 -1 -1 -2.62319e-09 800.409 524.701)" fill="#D9D9D9"/>
<ellipse cx="25" cy="24.9999" rx="25" ry="24.9999" transform="matrix(0 -1 -1 0 525.411 524.701)" fill="#D9D9D9"/>
<ellipse cx="25" cy="24.9999" rx="25" ry="24.9999" transform="matrix(0.342019 -0.939693 -0.939692 -0.342022 773.724 626.042)" fill="#D9D9D9"/>
<ellipse cx="25" cy="24.9999" rx="25" ry="24.9999" transform="matrix(0.342019 -0.939693 -0.939692 -0.342022 515.31 531.987)" fill="#D9D9D9"/>
<ellipse cx="25" cy="24.9999" rx="25" ry="24.9999" transform="matrix(0.642785 -0.766045 -0.766043 -0.64279 713.583 711.903)" fill="#D9D9D9"/>
<ellipse cx="25" cy="24.9999" rx="25" ry="24.9999" transform="matrix(0.642785 -0.766045 -0.766043 -0.64279 502.922 535.136)" fill="#D9D9D9"/>
<ellipse cx="24.9999" cy="25" rx="24.9999" ry="25" transform="matrix(0.866024 -0.500001 -0.499999 -0.866027 628.545 772.05)" fill="#D9D9D9"/>
<ellipse cx="24.9999" cy="25" rx="24.9999" ry="25" transform="matrix(0.866024 -0.500001 -0.499999 -0.866027 491.046 533.893)" fill="#D9D9D9"/>
<ellipse cx="24.9999" cy="25" rx="24.9999" ry="25" transform="matrix(0.984807 -0.173649 -0.173647 -0.984808 527.488 799.925)" fill="#D9D9D9"/>
<ellipse cx="24.9999" cy="25" rx="24.9999" ry="25" transform="matrix(0.984807 -0.173649 -0.173647 -0.984808 479.735 529.103)" fill="#D9D9D9"/>
<circle cx="474.663" cy="341.34" r="17.5" transform="rotate(-10 474.663 341.34)" fill="#D9D9D9"/>
<circle cx="502.957" cy="501.797" r="17.5" transform="rotate(-10 502.957 501.797)" fill="#D9D9D9"/>
<circle cx="422.01" cy="359.807" r="17.5" transform="rotate(-30 422.01 359.807)" fill="#D9D9D9"/>
<circle cx="503.477" cy="500.912" r="17.5" transform="rotate(-30 503.477 500.912)" fill="#D9D9D9"/>
<circle cx="378.915" cy="394.675" r="17.5" transform="rotate(-50 378.915 394.675)" fill="#D9D9D9"/>
<circle cx="503.729" cy="499.407" r="17.5" transform="rotate(-50 503.729 499.407)" fill="#D9D9D9"/>
<circle cx="350.029" cy="442.471" r="17.5" transform="rotate(-70 350.029 442.471)" fill="#D9D9D9"/>
<circle cx="503.136" cy="498.197" r="17.5" transform="rotate(-70 503.136 498.197)" fill="#D9D9D9"/>
<circle cx="339.5" cy="496.88" r="17.5" transform="rotate(-90 339.5 496.88)" fill="#D9D9D9"/>
<circle cx="502.433" cy="496.88" r="17.5" transform="rotate(-90 502.433 496.88)" fill="#D9D9D9"/>
<circle cx="348.27" cy="551.994" r="17.5" transform="rotate(-110 348.27 551.994)" fill="#D9D9D9"/>
<circle cx="501.377" cy="496.267" r="17.5" transform="rotate(-110 501.377 496.267)" fill="#D9D9D9"/>
<circle cx="375.6" cy="600.64" r="17.5" transform="rotate(-130 375.6 600.64)" fill="#D9D9D9"/>
<circle cx="500.415" cy="495.909" r="17.5" transform="rotate(-130 500.415 495.909)" fill="#D9D9D9"/>
<circle cx="417.422" cy="637.026" r="17.5" transform="rotate(-150 417.422 637.026)" fill="#D9D9D9"/>
<circle cx="498.889" cy="495.921" r="17.5" transform="rotate(-150 498.889 495.921)" fill="#D9D9D9"/>
<circle cx="469.508" cy="657.174" r="17.5" transform="rotate(-170 469.508 657.174)" fill="#D9D9D9"/>
<circle cx="497.801" cy="496.716" r="17.5" transform="rotate(-170 497.801 496.716)" fill="#D9D9D9"/>
<circle cx="17.5" cy="17.5" r="17.5" transform="matrix(-0.984808 -0.173649 -0.173647 0.984808 545.61 327.144)" fill="#D9D9D9"/>
<circle cx="17.5" cy="17.5" r="17.5" transform="matrix(-0.984808 -0.173649 -0.173647 0.984808 517.317 487.602)" fill="#D9D9D9"/>
<circle cx="17.5" cy="17.5" r="17.5" transform="matrix(-0.866024 -0.500002 -0.499998 0.866026 601.896 353.402)" fill="#D9D9D9"/>
<circle cx="17.5" cy="17.5" r="17.5" transform="matrix(-0.866024 -0.500002 -0.499998 0.866026 520.43 494.506)" fill="#D9D9D9"/>
<circle cx="17.5" cy="17.5" r="17.5" transform="matrix(-0.642786 -0.766046 -0.766043 0.642789 645.74 396.832)" fill="#D9D9D9"/>
<circle cx="17.5" cy="17.5" r="17.5" transform="matrix(-0.642786 -0.766046 -0.766043 0.642789 520.926 501.564)" fill="#D9D9D9"/>
<circle cx="17.5" cy="17.5" r="17.5" transform="matrix(-0.342019 -0.939693 -0.939692 0.342022 672.401 452.93)" fill="#D9D9D9"/>
<circle cx="17.5" cy="17.5" r="17.5" transform="matrix(-0.342019 -0.939693 -0.939692 0.342022 519.295 508.657)" fill="#D9D9D9"/>
<ellipse cx="17.5" cy="17.5" rx="17.5" ry="17.5" transform="matrix(3.40203e-09 -1 -1 -2.62319e-09 678 514.38)" fill="#D9D9D9"/>
<ellipse cx="17.5" cy="17.5" rx="17.5" ry="17.5" transform="matrix(0 -1 -1 0 515.067 514.38)" fill="#D9D9D9"/>
<ellipse cx="17.5" cy="17.5" rx="17.5" ry="17.5" transform="matrix(0.342019 -0.939693 -0.939692 -0.342022 662.189 574.424)" fill="#D9D9D9"/>
<ellipse cx="17.5" cy="17.5" rx="17.5" ry="17.5" transform="matrix(0.342019 -0.939693 -0.939692 -0.342022 509.083 518.697)" fill="#D9D9D9"/>
<ellipse cx="17.5" cy="17.5" rx="17.5" ry="17.5" transform="matrix(0.642785 -0.766045 -0.766043 -0.64279 626.557 625.295)" fill="#D9D9D9"/>
<ellipse cx="17.5" cy="17.5" rx="17.5" ry="17.5" transform="matrix(0.642785 -0.766045 -0.766043 -0.64279 501.743 520.563)" fill="#D9D9D9"/>
<ellipse cx="17.5" cy="17.5" rx="17.5" ry="17.5" transform="matrix(0.866024 -0.500001 -0.499999 -0.866027 576.173 660.931)" fill="#D9D9D9"/>
<ellipse cx="17.5" cy="17.5" rx="17.5" ry="17.5" transform="matrix(0.866024 -0.500001 -0.499999 -0.866027 494.707 519.827)" fill="#D9D9D9"/>
<ellipse cx="17.5" cy="17.5" rx="17.5" ry="17.5" transform="matrix(0.984807 -0.173649 -0.173647 -0.984808 516.298 677.447)" fill="#D9D9D9"/>
<ellipse cx="17.5" cy="17.5" rx="17.5" ry="17.5" transform="matrix(0.984807 -0.173649 -0.173647 -0.984808 488.005 516.989)" fill="#D9D9D9"/>
<ellipse cx="15" cy="15" rx="15" ry="15" transform="matrix(0.967082 -0.254466 0.263235 0.964732 459.029 389.181)" fill="#D9D9D9"/>
<circle cx="15" cy="15" r="15" transform="matrix(0.713497 -0.700659 0.713497 0.700659 409.239 423.631)" fill="#D9D9D9"/>
<ellipse cx="15" cy="15" rx="15" ry="15" transform="matrix(0.263235 -0.964732 0.967082 0.254466 382.858 477.977)" fill="#D9D9D9"/>
<ellipse cx="15" cy="15" rx="15" ry="15" transform="matrix(-0.263235 -0.964732 0.967082 -0.254466 387.295 540.268)" fill="#D9D9D9"/>
<circle cx="15" cy="15" r="15" transform="matrix(-0.713497 -0.700659 0.713497 -0.700659 422.376 589.162)" fill="#D9D9D9"/>
<ellipse cx="15" cy="15" rx="15" ry="15" transform="matrix(-0.967082 -0.254466 0.263235 -0.964732 477.717 615.069)" fill="#D9D9D9"/>
<ellipse cx="15" cy="15" rx="15" ry="15" transform="matrix(-0.967082 0.254466 -0.263235 -0.964732 538.177 610.712)" fill="#D9D9D9"/>
<circle cx="15" cy="15" r="15" transform="matrix(-0.713497 0.700659 -0.713497 -0.700659 587.967 576.262)" fill="#D9D9D9"/>
<ellipse cx="15" cy="15" rx="15" ry="15" transform="matrix(-0.263235 0.964732 -0.967082 -0.254466 614.348 521.916)" fill="#D9D9D9"/>
<ellipse cx="15" cy="15" rx="15" ry="15" transform="matrix(0.263235 0.964732 -0.967082 0.254466 609.911 459.8)" fill="#D9D9D9"/>
<circle cx="15" cy="15" r="15" transform="matrix(0.713497 0.700659 -0.713497 0.700659 574.83 410.906)" fill="#D9D9D9"/>
<ellipse cx="15" cy="15" rx="15" ry="15" transform="matrix(0.967082 0.254466 -0.263235 0.964732 519.489 385)" fill="#D9D9D9"/>
<ellipse cx="499.5" cy="150.468" rx="30.0079" ry="29.468" fill="#D9D9D9"/>
<ellipse cx="29.972" cy="29.5044" rx="29.972" ry="29.5044" transform="matrix(0.967082 -0.254466 0.263235 0.964732 371.066 140.969)" fill="#D9D9D9"/>
<ellipse cx="29.8738" cy="29.6039" rx="29.8738" ry="29.6039" transform="matrix(0.869912 -0.493207 0.506824 0.86205 283.443 185.829)" fill="#D9D9D9"/>
<circle cx="29.7391" cy="29.7391" r="29.7391" transform="matrix(0.713497 -0.700659 0.713497 0.700659 210.224 252.256)" fill="#D9D9D9"/>
<ellipse cx="29.6039" cy="29.8738" rx="29.6039" ry="29.8738" transform="matrix(0.506824 -0.86205 0.869912 0.493207 155.809 329.881)" fill="#D9D9D9"/>
<ellipse cx="29.5044" cy="29.972" rx="29.5044" ry="29.972" transform="matrix(0.263235 -0.964732 0.967082 0.254466 125.002 427.816)" fill="#D9D9D9"/>
<ellipse cx="149.008" cy="502.921" rx="29.468" ry="30.0079" transform="rotate(-90 149.008 502.921)" fill="#D9D9D9"/>
<ellipse cx="29.5044" cy="29.972" rx="29.5044" ry="29.972" transform="matrix(-0.263235 -0.964732 0.967082 -0.254466 139.334 629.044)" fill="#D9D9D9"/>
<ellipse cx="29.6039" cy="29.8738" rx="29.6039" ry="29.8738" transform="matrix(-0.506824 -0.86205 0.869912 -0.493207 185.017 715.409)" fill="#D9D9D9"/>
<circle cx="29.7391" cy="29.7391" r="29.7391" transform="matrix(-0.713497 -0.700659 0.713497 -0.700659 252.661 786.992)" fill="#D9D9D9"/>
<ellipse cx="29.8738" cy="29.6039" rx="29.8738" ry="29.6039" transform="matrix(-0.869912 -0.493207 0.506824 -0.86205 337.819 842.71)" fill="#D9D9D9"/>
<ellipse cx="29.972" cy="29.5044" rx="29.972" ry="29.5044" transform="matrix(-0.967082 -0.254466 0.263235 -0.964732 431.438 871)" fill="#D9D9D9"/>
<ellipse cx="498.317" cy="847.425" rx="30.0079" ry="29.468" transform="rotate(-180 498.317 847.425)" fill="#D9D9D9"/>
<ellipse cx="29.972" cy="29.5044" rx="29.972" ry="29.5044" transform="matrix(-0.967082 0.254466 -0.263235 -0.964732 626.751 856.925)" fill="#D9D9D9"/>
<ellipse cx="29.8738" cy="29.6039" rx="29.8738" ry="29.6039" transform="matrix(-0.869912 0.493207 -0.506824 -0.86205 714.374 812.064)" fill="#D9D9D9"/>
<circle cx="29.7391" cy="29.7391" r="29.7391" transform="matrix(-0.713497 0.700659 -0.713497 -0.700659 787.593 745.637)" fill="#D9D9D9"/>
<ellipse cx="29.6039" cy="29.8738" rx="29.6039" ry="29.8738" transform="matrix(-0.506824 0.86205 -0.869912 -0.493207 844.008 662.011)" fill="#D9D9D9"/>
<ellipse cx="29.5044" cy="29.972" rx="29.5044" ry="29.972" transform="matrix(-0.263235 0.964732 -0.967082 -0.254466 872.815 570.077)" fill="#D9D9D9"/>
<ellipse cx="848.809" cy="494.972" rx="29.468" ry="30.0079" transform="rotate(90 848.809 494.972)" fill="#D9D9D9"/>
<ellipse cx="29.5044" cy="29.972" rx="29.5044" ry="29.972" transform="matrix(0.263235 0.964732 -0.967082 0.254466 858.482 368.849)" fill="#D9D9D9"/>
<ellipse cx="29.6039" cy="29.8738" rx="29.6039" ry="29.8738" transform="matrix(0.506824 0.86205 -0.869912 0.493207 812.799 282.802)" fill="#D9D9D9"/>
<circle cx="29.7391" cy="29.7391" r="29.7391" transform="matrix(0.713497 0.700659 -0.713497 0.700659 745.155 210.583)" fill="#D9D9D9"/>
<ellipse cx="29.8738" cy="29.6039" rx="29.8738" ry="29.6039" transform="matrix(0.869912 0.493207 -0.506824 0.86205 659.998 155.183)" fill="#D9D9D9"/>
<ellipse cx="29.972" cy="29.5044" rx="29.972" ry="29.5044" transform="matrix(0.967082 0.254466 -0.263235 0.964732 566.379 126.894)" fill="#D9D9D9"/>
<circle cx="499.884" cy="286.611" r="19.6107" fill="#D9D9D9"/>
<circle cx="499.884" cy="500.367" r="19.6107" fill="#D9D9D9"/>
<circle cx="426.966" cy="299.98" r="19.6107" transform="rotate(-20 426.966 299.98)" fill="#D9D9D9"/>
<circle cx="500.075" cy="500.845" r="19.6107" transform="rotate(-20 500.075 500.845)" fill="#D9D9D9"/>
<circle cx="362.782" cy="336.791" r="19.6107" transform="rotate(-40 362.782 336.791)" fill="#D9D9D9"/>
<circle cx="500.182" cy="500.538" r="19.6107" transform="rotate(-40 500.182 500.538)" fill="#D9D9D9"/>
<circle cx="314.877" cy="393.803" r="19.6107" transform="rotate(-60 314.877 393.803)" fill="#D9D9D9"/>
<circle cx="499.996" cy="500.681" r="19.6107" transform="rotate(-60 499.996 500.681)" fill="#D9D9D9"/>
<circle cx="289.235" cy="463.272" r="19.6107" transform="rotate(-80 289.235 463.272)" fill="#D9D9D9"/>
<circle cx="499.744" cy="500.391" r="19.6107" transform="rotate(-80 499.744 500.391)" fill="#D9D9D9"/>
<circle cx="288.718" cy="537.457" r="19.6107" transform="rotate(-100 288.718 537.457)" fill="#D9D9D9"/>
<circle cx="499.227" cy="500.339" r="19.6107" transform="rotate(-100 499.227 500.339)" fill="#D9D9D9"/>
<circle cx="314.546" cy="606.946" r="19.6107" transform="rotate(-120 314.546 606.946)" fill="#D9D9D9"/>
<circle cx="499.664" cy="500.068" r="19.6107" transform="rotate(-120 499.664 500.068)" fill="#D9D9D9"/>
<circle cx="361.943" cy="663.762" r="19.6107" transform="rotate(-140 361.943 663.762)" fill="#D9D9D9"/>
<circle cx="499.343" cy="500.015" r="19.6107" transform="rotate(-140 499.343 500.015)" fill="#D9D9D9"/>
<circle cx="426.408" cy="701.039" r="19.6107" transform="rotate(-160 426.408 701.039)" fill="#D9D9D9"/>
<circle cx="499.517" cy="500.174" r="19.6107" transform="rotate(-160 499.517 500.174)" fill="#D9D9D9"/>
<circle cx="499.275" cy="714.228" r="19.6107" transform="rotate(180 499.275 714.228)" fill="#D9D9D9"/>
<circle cx="499.275" cy="500.472" r="19.6107" transform="rotate(180 499.275 500.472)" fill="#D9D9D9"/>
<ellipse cx="19.6108" cy="19.6107" rx="19.6108" ry="19.6107" transform="matrix(-1 0 0 1 519.082 267)" fill="#D9D9D9"/>
<ellipse cx="19.6108" cy="19.6107" rx="19.6108" ry="19.6107" transform="matrix(-1 0 0 1 519.082 480.756)" fill="#D9D9D9"/>
<ellipse cx="19.6107" cy="19.6107" rx="19.6107" ry="19.6107" transform="matrix(-0.939693 -0.342019 -0.342022 0.939692 597.525 288.259)" fill="#D9D9D9"/>
<ellipse cx="19.6107" cy="19.6107" rx="19.6107" ry="19.6107" transform="matrix(-0.939693 -0.342019 -0.342022 0.939692 524.415 489.124)" fill="#D9D9D9"/>
<ellipse cx="19.6107" cy="19.6107" rx="19.6107" ry="19.6107" transform="matrix(-0.766046 -0.642786 -0.64279 0.766043 664.201 334.374)" fill="#D9D9D9"/>
<ellipse cx="19.6107" cy="19.6107" rx="19.6107" ry="19.6107" transform="matrix(-0.766046 -0.642786 -0.64279 0.766043 526.801 498.121)" fill="#D9D9D9"/>
<ellipse cx="19.6107" cy="19.6107" rx="19.6107" ry="19.6107" transform="matrix(-0.500002 -0.866024 -0.866027 0.499998 711.267 400.981)" fill="#D9D9D9"/>
<ellipse cx="19.6107" cy="19.6107" rx="19.6107" ry="19.6107" transform="matrix(-0.500002 -0.866024 -0.866027 0.499998 526.148 507.859)" fill="#D9D9D9"/>
<ellipse cx="19.6107" cy="19.6108" rx="19.6107" ry="19.6108" transform="matrix(-0.173649 -0.984808 -0.984808 0.173647 732.839 479.18)" fill="#D9D9D9"/>
<ellipse cx="19.6107" cy="19.6108" rx="19.6107" ry="19.6108" transform="matrix(-0.173649 -0.984808 -0.984808 0.173647 522.329 516.298)" fill="#D9D9D9"/>
<ellipse cx="19.6107" cy="19.6108" rx="19.6107" ry="19.6108" transform="matrix(0.173649 -0.984808 -0.984808 -0.173647 726.545 560.175)" fill="#D9D9D9"/>
<ellipse cx="19.6107" cy="19.6108" rx="19.6107" ry="19.6108" transform="matrix(0.173649 -0.984808 -0.984808 -0.173647 516.035 523.057)" fill="#D9D9D9"/>
<ellipse cx="19.6107" cy="19.6107" rx="19.6107" ry="19.6107" transform="matrix(0.500002 -0.866025 -0.866026 -0.499998 691.988 633.735)" fill="#D9D9D9"/>
<ellipse cx="19.6107" cy="19.6107" rx="19.6107" ry="19.6107" transform="matrix(0.500002 -0.866025 -0.866026 -0.499998 506.868 526.856)" fill="#D9D9D9"/>
<ellipse cx="19.6107" cy="19.6107" rx="19.6107" ry="19.6107" transform="matrix(0.766047 -0.642786 -0.642789 -0.766042 634.995 691.39)" fill="#D9D9D9"/>
<ellipse cx="19.6107" cy="19.6107" rx="19.6107" ry="19.6107" transform="matrix(0.766047 -0.642786 -0.642789 -0.766042 497.594 527.643)" fill="#D9D9D9"/>
<ellipse cx="19.6107" cy="19.6107" rx="19.6107" ry="19.6107" transform="matrix(0.939694 -0.342019 -0.342021 -0.939691 561.226 726.174)" fill="#D9D9D9"/>
<ellipse cx="19.6107" cy="19.6107" rx="19.6107" ry="19.6107" transform="matrix(0.939694 -0.342019 -0.342021 -0.939691 488.117 525.309)" fill="#D9D9D9"/>
<ellipse cx="19.6108" cy="19.6107" rx="19.6108" ry="19.6107" transform="matrix(1 -6.94818e-09 6.94767e-09 -1 480.469 733.839)" fill="#D9D9D9"/>
<ellipse cx="19.6108" cy="19.6107" rx="19.6108" ry="19.6107" transform="matrix(1 0 0 -1 480.469 520.083)" fill="#D9D9D9"/>
</svg>
