<svg width="120" height="120" viewBox="0 0 120 120" fill="none" xmlns="http://www.w3.org/2000/svg">
<path d="M94 67C94 71.5963 93.0947 76.1475 91.3358 80.3939C89.5769 84.6403 86.9988 88.4987 83.7487 91.7487C80.4987 94.9988 76.6403 97.5769 72.3939 99.3358C68.1475 101.095 63.5963 102 59 102C54.4037 102 49.8525 101.095 45.6061 99.3358C41.3597 97.5769 37.5013 94.9988 34.2513 91.7487C31.0012 88.4987 28.4231 84.6403 26.6642 80.3939C24.9053 76.1475 24 71.5963 24 67L59 67H94Z" fill="#DEC58E"/>
<path d="M29.1108 36.0293C32.2856 27.3065 38.7955 20.2022 47.2083 16.2792C55.6212 12.3563 65.2479 11.9359 73.9706 15.1107C82.6934 18.2855 89.7977 24.7954 93.7207 33.2082C97.6437 41.6211 98.0641 51.2478 94.8893 59.9705L62 48L29.1108 36.0293Z" fill="#DEC58E"/>
<path d="M36 65.5C36 64.7777 35.8577 64.0625 35.5813 63.3952C35.3049 62.728 34.8998 62.1216 34.3891 61.6109C33.8784 61.1002 33.272 60.6951 32.6048 60.4187C31.9375 60.1423 31.2223 60 30.5 60C29.7777 60 29.0625 60.1423 28.3952 60.4187C27.728 60.6951 27.1216 61.1002 26.6109 61.6109C26.1002 62.1216 25.6951 62.728 25.4187 63.3952C25.1423 64.0625 25 64.7777 25 65.5L30.5 65.5H36Z" fill="#8C8C8C"/>
<path d="M93 65.5C93 64.0413 92.4205 62.6424 91.3891 61.6109C90.3576 60.5795 88.9587 60 87.5 60C86.0413 60 84.6424 60.5795 83.6109 61.6109C82.5795 62.6424 82 64.0413 82 65.5L87.5 65.5H93Z" fill="#8C8C8C"/>
<path d="M48 65.5C48 64.9091 47.8836 64.3239 47.6575 63.7779C47.4313 63.232 47.0998 62.7359 46.682 62.318C46.2641 61.9002 45.768 61.5687 45.2221 61.3425C44.6761 61.1164 44.0909 61 43.5 61C42.9091 61 42.3239 61.1164 41.7779 61.3425C41.232 61.5687 40.7359 61.9002 40.318 62.318C39.9002 62.7359 39.5687 63.232 39.3425 63.7779C39.1164 64.3239 39 64.9091 39 65.5L43.5 65.5H48Z" fill="#8C8C8C"/>
<path d="M79 65.5C79 64.9091 78.8836 64.3239 78.6575 63.7779C78.4313 63.232 78.0998 62.7359 77.682 62.318C77.2641 61.9002 76.768 61.5687 76.2221 61.3425C75.6761 61.1164 75.0909 61 74.5 61C73.9091 61 73.3239 61.1164 72.7779 61.3425C72.232 61.5687 71.7359 61.9002 71.318 62.318C70.9002 62.7359 70.5687 63.232 70.3425 63.7779C70.1164 64.3239 70 64.9091 70 65.5L74.5 65.5H79Z" fill="#8C8C8C"/>
<path d="M57 65.5C57 65.0404 56.9095 64.5852 56.7336 64.1606C56.5577 63.736 56.2999 63.3501 55.9749 63.0251C55.6499 62.7001 55.264 62.4423 54.8394 62.2664C54.4148 62.0905 53.9596 62 53.5 62C53.0404 62 52.5852 62.0905 52.1606 62.2664C51.736 62.4423 51.3501 62.7001 51.0251 63.0251C50.7001 63.3501 50.4423 63.736 50.2664 64.1606C50.0905 64.5852 50 65.0404 50 65.5L53.5 65.5H57Z" fill="#8C8C8C"/>
<path d="M68 65.5C68 65.0404 67.9095 64.5852 67.7336 64.1606C67.5577 63.736 67.2999 63.3501 66.9749 63.0251C66.6499 62.7001 66.264 62.4423 65.8394 62.2664C65.4148 62.0905 64.9596 62 64.5 62C64.0404 62 63.5852 62.0905 63.1606 62.2664C62.736 62.4423 62.3501 62.7001 62.0251 63.0251C61.7001 63.3501 61.4423 63.736 61.2664 64.1606C61.0905 64.5852 61 65.0404 61 65.5L64.5 65.5H68Z" fill="#8C8C8C"/>
<path d="M64.75 103.5C64.75 107.034 62.0958 109.75 59 109.75C55.9042 109.75 53.25 107.034 53.25 103.5C53.25 99.9656 55.9042 97.25 59 97.25C62.0958 97.25 64.75 99.9656 64.75 103.5Z" stroke="#DEC58E" stroke-width="2.5"/>
<path d="M79.8297 10.513L80.3428 9.10349L77.5237 8.07743L77.0107 9.48697L79.8297 10.513ZM77.0107 9.48697L73.5905 18.8839L76.4095 19.91L79.8297 10.513L77.0107 9.48697Z" fill="#DEC58E"/>
</svg>
