<svg width="1000" height="1000" viewBox="0 0 1000 1000" fill="none" xmlns="http://www.w3.org/2000/svg">
<circle cx="500.5" cy="499.5" r="17.5" fill="#D9D9D9"/>
<path d="M500 525L512.99 675H487.01L500 525Z" fill="#D9D9D9"/>
<path d="M506.489 523.882L557.859 665.409L532.764 672.133L506.489 523.882Z" fill="#D9D9D9"/>
<path d="M511.99 520.5L598.24 643.909L575.74 656.899L511.99 520.5Z" fill="#D9D9D9"/>
<path d="M517.607 517.607L632.858 614.487L614.487 632.858L517.607 517.607Z" fill="#D9D9D9"/>
<path d="M521.5 511.99L657.899 575.74L644.909 598.24L521.5 511.99Z" fill="#D9D9D9"/>
<path d="M523.882 506.489L672.133 532.764L665.409 557.859L523.882 506.489Z" fill="#D9D9D9"/>
<path d="M525 499.95L675 486.959V512.94L525 499.95Z" fill="#D9D9D9"/>
<path d="M523.882 493.461L665.409 442.09L672.133 467.186L523.882 493.461Z" fill="#D9D9D9"/>
<path d="M520.5 487.959L643.909 401.709L656.899 424.209L520.5 487.959Z" fill="#D9D9D9"/>
<path d="M517.607 482.343L614.487 367.092L632.858 385.463L517.607 482.343Z" fill="#D9D9D9"/>
<path d="M511.99 478.45L575.74 342.051L598.24 355.041L511.99 478.45Z" fill="#D9D9D9"/>
<path d="M506.489 476.067L532.764 327.816L557.859 334.541L506.489 476.067Z" fill="#D9D9D9"/>
<path d="M499.95 475L486.959 325H512.94L499.95 475Z" fill="#D9D9D9"/>
<path d="M493.461 476.118L442.09 334.591L467.186 327.867L493.461 476.118Z" fill="#D9D9D9"/>
<path d="M487.959 479.5L401.709 356.091L424.209 343.101L487.959 479.5Z" fill="#D9D9D9"/>
<path d="M482.343 482.393L367.092 385.513L385.463 367.142L482.343 482.393Z" fill="#D9D9D9"/>
<path d="M478.45 488.01L342.051 424.26L355.041 401.76L478.45 488.01Z" fill="#D9D9D9"/>
<path d="M476.067 493.511L327.816 467.236L334.541 442.141L476.067 493.511Z" fill="#D9D9D9"/>
<path d="M475 500L325 512.99V487.01L475 500Z" fill="#D9D9D9"/>
<path d="M476.118 506.489L334.591 557.859L327.867 532.764L476.118 506.489Z" fill="#D9D9D9"/>
<path d="M479.5 511.99L356.091 598.24L343.101 575.74L479.5 511.99Z" fill="#D9D9D9"/>
<path d="M482.393 517.607L385.513 632.858L367.142 614.487L482.393 517.607Z" fill="#D9D9D9"/>
<path d="M488.01 521.5L424.26 657.899L401.76 644.909L488.01 521.5Z" fill="#D9D9D9"/>
<path d="M493.511 523.882L467.236 672.133L442.141 665.409L493.511 523.882Z" fill="#D9D9D9"/>
<path fill-rule="evenodd" clip-rule="evenodd" d="M463.547 313.928L423.44 132.259L478.575 125L486.854 310.874C478.942 311.416 471.163 312.444 463.547 313.928ZM438.212 320.725L382.278 143.866L330.9 165.148L416.427 329.797C423.455 326.34 430.727 323.304 438.212 320.725ZM394.013 342.803L295.332 188.203L251.212 222.057L375.047 357.438C381.046 352.175 387.38 347.284 394.013 342.803ZM357.011 375.536L219.822 250.047L185.968 294.166L342.683 394.198C347.076 387.678 351.863 381.446 357.011 375.536ZM329.327 417.405L164.934 332.011L143.653 383.389L320.37 439.279C322.909 431.765 325.905 424.463 329.327 417.405ZM313.958 463.448L132.711 423.433L125.452 478.569L310.889 486.828C311.433 478.89 312.466 471.087 313.958 463.448ZM310.881 513.039L125 521.318L132.259 576.453L313.921 536.347C312.442 528.731 311.418 520.951 310.881 513.039ZM320.704 561.688L143.867 617.615L165.148 668.993L329.766 583.482C326.312 576.451 323.28 569.176 320.704 561.688ZM342.762 605.906L188.203 704.562L222.057 748.681L357.393 624.887C352.131 618.883 347.242 612.544 342.762 605.906ZM375.488 642.935L250.047 780.072L294.167 813.925L394.155 657.279C387.633 652.881 381.399 648.088 375.488 642.935ZM417.363 670.646L332.011 834.959L383.389 856.241L439.25 679.616C431.732 677.073 424.425 674.073 417.363 670.646ZM463.426 686.035L423.433 867.183L478.569 874.441L486.824 689.11C478.88 688.564 471.07 687.529 463.426 686.035ZM513.053 689.12L521.332 875L576.467 867.741L536.362 686.079C528.745 687.558 520.965 688.582 513.053 689.12ZM561.702 679.296L617.629 856.134L669.007 834.852L583.496 670.234C576.466 673.688 569.19 676.72 561.702 679.296ZM605.92 657.238L704.576 811.797L748.695 777.943L624.901 642.606C618.897 647.869 612.558 652.758 605.92 657.238ZM642.949 624.512L780.086 749.953L813.939 705.833L657.293 605.845C652.895 612.367 648.102 618.6 642.949 624.512ZM670.66 582.637L834.973 667.989L856.255 616.611L679.629 560.75C677.087 568.268 674.087 575.575 670.66 582.637ZM686.049 536.574L867.196 576.567L874.455 521.431L689.124 513.176C688.578 521.12 687.543 528.93 686.049 536.574ZM689.126 486.84L875 478.561L867.741 423.426L686.072 463.533C687.556 471.149 688.584 478.928 689.126 486.84ZM679.275 438.198L856.133 382.264L834.852 330.886L670.203 416.413C673.66 423.44 676.695 430.713 679.275 438.198ZM657.197 394L811.797 295.318L777.943 251.198L642.562 375.033C647.825 381.032 652.716 387.366 657.197 394ZM624.463 356.997L749.953 219.808L705.833 185.954L605.801 342.669C612.321 347.062 618.553 351.849 624.463 356.997ZM582.595 329.313L667.989 164.92L616.611 143.638L560.721 320.356C568.235 322.895 575.537 325.891 582.595 329.313ZM536.552 313.944L576.567 132.697L521.431 125.438L513.172 310.875C521.11 311.419 528.913 312.452 536.552 313.944Z" fill="#D9D9D9"/>
</svg>
