<svg width="300" height="300" viewBox="0 0 300 300" fill="none" xmlns="http://www.w3.org/2000/svg">
<circle cx="73.5" cy="149.5" r="12.5" fill="#4E4E4E"/>
<circle cx="78.5" cy="175.5" r="12.5" fill="#4E4E4E"/>
<circle cx="91.5" cy="198.5" r="12.5" fill="#4E4E4E"/>
<circle cx="112.5" cy="215.5" r="12.5" fill="#4E4E4E"/>
<circle cx="136.5" cy="225.5" r="12.5" fill="#4E4E4E"/>
<circle cx="12.5" cy="12.5" r="12.5" transform="matrix(-1 0 0 1 239 137)" fill="#4E4E4E"/>
<circle cx="12.5" cy="12.5" r="12.5" transform="matrix(-1 0 0 1 234 163)" fill="#4E4E4E"/>
<circle cx="12.5" cy="12.5" r="12.5" transform="matrix(-1 0 0 1 221 186)" fill="#4E4E4E"/>
<circle cx="12.5" cy="12.5" r="12.5" transform="matrix(-1 0 0 1 200 203)" fill="#4E4E4E"/>
<circle cx="12.5" cy="12.5" r="12.5" transform="matrix(-1 0 0 1 176 213)" fill="#4E4E4E"/>
</svg>
