<svg width="300" height="300" viewBox="0 0 300 300" fill="none" xmlns="http://www.w3.org/2000/svg">
<path d="M250 150C250 163.132 247.413 176.136 242.388 188.268C237.362 200.401 229.997 211.425 220.711 220.711C211.425 229.997 200.401 237.362 188.268 242.388C176.136 247.413 163.132 250 150 250C136.868 250 123.864 247.413 111.732 242.388C99.5991 237.362 88.5752 229.997 79.2893 220.711C70.0035 211.425 62.6375 200.401 57.612 188.268C52.5866 176.136 50 163.132 50 150L60 150C60 161.819 62.3279 173.522 66.8508 184.442C71.3738 195.361 78.0031 205.282 86.3604 213.64C94.7177 221.997 104.639 228.626 115.558 233.149C126.478 237.672 138.181 240 150 240C161.819 240 173.522 237.672 184.442 233.149C195.361 228.626 205.282 221.997 213.64 213.64C221.997 205.282 228.626 195.361 233.149 184.442C237.672 173.522 240 161.819 240 150H250Z" fill="#DEC58E"/>
<path d="M169.287 245.385C170.095 249.067 170.218 252.932 169.646 256.683C169.074 260.434 167.822 263.971 165.986 267.023C164.151 270.075 161.78 272.561 159.057 274.29C156.333 276.019 153.329 276.945 150.275 276.998C147.22 277.05 144.197 276.227 141.436 274.592C138.676 272.957 136.252 270.554 134.35 267.566C132.448 264.578 131.119 261.085 130.464 257.356C129.81 253.626 129.848 249.758 130.575 246.05L136.402 247.835C135.893 250.431 135.867 253.138 136.325 255.749C136.783 258.36 137.713 260.805 139.045 262.896C140.376 264.988 142.073 266.67 144.005 267.815C145.938 268.959 148.054 269.535 150.192 269.498C152.33 269.462 154.433 268.813 156.34 267.603C158.246 266.392 159.906 264.652 161.19 262.516C162.475 260.379 163.352 257.903 163.752 255.278C164.153 252.652 164.067 249.947 163.501 247.37L169.287 245.385Z" fill="#DEC58E"/>
<circle cx="73.5" cy="149.5" r="12.5" fill="#4E4E4E"/>
<circle cx="78.5" cy="175.5" r="12.5" fill="#4E4E4E"/>
<circle cx="91.5" cy="198.5" r="12.5" fill="#4E4E4E"/>
<circle cx="112.5" cy="215.5" r="12.5" fill="#4E4E4E"/>
<circle cx="136.5" cy="225.5" r="12.5" fill="#4E4E4E"/>
<circle cx="12.5" cy="12.5" r="12.5" transform="matrix(-1 0 0 1 239 137)" fill="#4E4E4E"/>
<circle cx="12.5" cy="12.5" r="12.5" transform="matrix(-1 0 0 1 234 163)" fill="#4E4E4E"/>
<circle cx="12.5" cy="12.5" r="12.5" transform="matrix(-1 0 0 1 221 186)" fill="#4E4E4E"/>
<circle cx="12.5" cy="12.5" r="12.5" transform="matrix(-1 0 0 1 200 203)" fill="#4E4E4E"/>
<circle cx="12.5" cy="12.5" r="12.5" transform="matrix(-1 0 0 1 176 213)" fill="#4E4E4E"/>
</svg>
